<?xml version="1.0" encoding="UTF-8"?>
<!DOCTYPE svg PUBLIC "-//W3C//DTD SVG 1.1//EN" "http://www.w3.org/Graphics/SVG/1.1/DTD/svg11.dtd">
<!-- Creator: CorelDRAW 2017 -->
<svg xmlns="http://www.w3.org/2000/svg" xml:space="preserve" width="2.66625in" height="1.49239in" version="1.1" style="shape-rendering:geometricPrecision; text-rendering:geometricPrecision; image-rendering:optimizeQuality; fill-rule:evenodd; clip-rule:evenodd"
viewBox="0 0 1692.46 947.32"
 xmlns:xlink="http://www.w3.org/1999/xlink">
 <defs>
  <style type="text/css">
   <![CDATA[
    .fil0 {fill:#FEFEFE}
   ]]>
  </style>
 </defs>
 <g id="Capa_x0020_1">
  <metadata id="CorelCorpID_0Corel-Layer"/>
  <path class="fil0" d="M7.31 25.59l98.21 7.47c-22.65,55.11 14.02,246.49 112.97,149.38 44.98,-44.15 3.34,-97.88 11.22,-158.38l71.98 -24.06c191.81,688.47 -270.3,719.47 -286.53,398.94l101.53 4.4c41.42,151.2 166.34,15.33 108.14,-96.28 -75.26,29.74 -140.61,23.8 -186.47,-52.28 -36.96,-64.57 -46.98,-141.11 -31.04,-229.18z"/>
  <path class="fil0" d="M366.53 96.89c2.57,-32.18 33.53,-49.44 76.84,-30.94 29.49,12.59 12.05,104.36 12.6,158.86 6.31,84.76 96.05,97.07 107.07,40.24 2.79,-14.39 -19.53,-78.51 -27.04,-127.84 -18.91,-124.36 88.33,-75.23 88.58,-74.4 41.9,142.1 31.16,417.8 -200.57,312.98 -47.6,-27.55 -68.65,-116.17 -57.48,-278.9z"/>
  <path class="fil0" d="M671.97 372.49l72.74 -13.22 8.81 -185.14c7.74,21.44 69.17,146.69 83.76,138.86l72.73 -114.61c12.94,111.51 -10.28,167.74 0,156.49l66.12 0 22.04 -282.12 -85.96 -26.45c-22.78,42.61 -45.55,85.22 -68.33,127.84 -25.97,-1.78 -42.44,-64.12 -68.33,-136.65l-79.35 -13.22c-33.38,119.24 -37.88,234.88 -24.25,348.24z"/>
  <path class="fil0" d="M1018.57 340.84l90.37 15.43c-19.13,-41.3 -16.92,-102.09 2.2,-178.53l24.24 8.82 66.12 160.9 101.39 -152.08c15.42,5.61 19.68,43.74 10.91,105.28 -5.26,36.93 -11.24,74.18 -17.52,110.72l96.98 39.67 11.02 -407.75 -101.39 -11.02c-36.27,81.53 -66.25,142.79 -96.64,153.77l-57.65 -164.8 -105.79 -6.61c-30.95,108.74 -40.32,217.47 -24.25,326.2z"/>
  <path class="fil0" d="M1692.46 81.55l-81.55 0c-3.57,24.46 3.17,96.83 -14.12,132.97 -26.42,55.2 -113.52,79.93 -80.65,-135.17l-77.94 -17.1c-44.87,281.71 81.79,336.64 165.95,277.73 -28.23,269.7 -455.67,114.69 -628.14,137.09 -358.03,46.51 -515.63,207.64 -511.82,202.77 176.02,-224.96 439.29,-295.72 784.27,-223.98 -360.12,-114.25 -645.29,-71.25 -749.8,-11.13 -92.92,53.45 -167.73,75.36 -222.2,151.1 -258.48,359.36 90.95,391.08 341.81,322.09 193.26,-53.14 261.72,-169.64 357.7,-220.03 556.3,-292.05 628.17,230.29 716.5,-616.34z"/>
 </g>
</svg>
