<?xml version="1.0" encoding="UTF-8"?>
<!DOCTYPE svg PUBLIC "-//W3C//DTD SVG 1.1//EN" "http://www.w3.org/Graphics/SVG/1.1/DTD/svg11.dtd">
<!-- Creator: CorelDRAW 2017 -->
<svg xmlns="http://www.w3.org/2000/svg" xml:space="preserve" width="8.5in" height="11in" version="1.1" style="shape-rendering:geometricPrecision; text-rendering:geometricPrecision; image-rendering:optimizeQuality; fill-rule:evenodd; clip-rule:evenodd"
viewBox="0 0 8500 11000"
 xmlns:xlink="http://www.w3.org/1999/xlink">
 <defs>
  <style type="text/css">
   <![CDATA[
    .fil0 {fill:#ED3237}
   ]]>
  </style>
 </defs>
 <g id="Capa_x0020_1">
  <metadata id="CorelCorpID_0Corel-Layer"/>
  <path class="fil0" d="M1156.5 3133.72l367.14 27.91c-84.66,206.01 52.42,921.43 422.29,558.41 168.14,-165.03 12.48,-365.89 41.94,-592.04l269.06 -89.95c717,2573.59 -1010.44,2689.51 -1071.09,1491.29l379.54 16.46c154.83,565.2 621.8,57.31 404.25,-359.92 -281.32,111.16 -525.61,88.96 -697.07,-195.44 -138.18,-241.36 -175.61,-527.48 -116.05,-856.72z"/>
  <path class="fil0" d="M2469.91 3413.87c9.61,-120.28 125.33,-184.81 287.25,-115.67 110.25,47.07 45.05,390.11 47.09,593.86 23.58,316.83 359.03,362.88 400.25,150.41 10.43,-53.79 -73.01,-293.5 -101.06,-477.87 -70.7,-464.9 330.2,-281.23 331.12,-278.12 156.63,531.18 116.48,1561.8 -749.77,1169.96 -177.94,-102.98 -256.62,-434.27 -214.87,-1042.57z"/>
  <path class="fil0" d="M3650.26 4439.31l271.9 -49.43 32.95 -692.09c28.93,80.16 258.57,548.34 313.09,519.07l271.89 -428.44c48.35,416.84 -38.42,627.04 0,584.98l247.17 0 82.4 -1054.62 -321.33 -98.87c-85.14,159.29 -170.28,318.58 -255.42,477.87 -97.08,-6.65 -158.67,-239.68 -255.41,-510.83l-296.61 -49.43c-124.77,445.75 -141.62,878.01 -90.64,1301.78z"/>
  <path class="fil0" d="M4964.07 4379.35l337.81 57.67c-71.5,-154.39 -63.25,-381.64 8.24,-667.37l90.63 32.96 247.18 601.46 379 -568.5c57.66,20.98 73.57,163.49 40.78,393.56 -19.68,138.05 -42.03,277.3 -65.5,413.88l362.52 148.3 41.2 -1524.24 -379 -41.2c-135.57,304.78 -247.66,533.75 -361.26,574.83l-215.49 -616.03 -395.48 -24.72c-115.7,406.47 -150.71,812.94 -90.63,1219.4z"/>
  <path class="fil0" d="M7492.54 3365.66l-304.85 0c-13.35,91.43 11.85,361.98 -52.78,497.05 -98.75,206.37 -424.35,298.8 -301.5,-505.29l-291.34 -63.92c-167.74,1053.09 305.75,1258.4 620.37,1038.2 -105.52,1008.19 -1703.39,428.72 -2348.09,512.46 -1338.38,173.85 -1927.51,776.18 -1913.28,758 657.98,-840.92 1642.14,-1105.43 2931.72,-837.27 -1346.19,-427.07 -2379.03,-194.78 -2802.88,-41.62 -1760.91,636.3 -1329.02,3248.22 1461.74,1086.33 2103.61,-1629.57 2699.48,700.4 3000.89,-2443.96zm-4517.62 2801.57c-273.56,53.55 -399.72,-18.73 -518.44,-52.57 -241.36,-68.81 -211.54,223.49 58.85,324.2 597.53,222.58 1290.37,-495.22 1563.85,-672.65 148.88,-96.59 -674.65,316.92 -1104.26,401.02z"/>
  <path class="fil0" d="M1860.33 5514.9c-296.24,45.74 -791.4,-168.83 -863.88,94.5 -47.04,170.89 136.74,323.69 374.89,297.94 229.61,-24.82 376.91,-230.52 489,-392.45z"/>
 </g>
</svg>
