<?xml version="1.0" encoding="UTF-8"?>
<!DOCTYPE svg PUBLIC "-//W3C//DTD SVG 1.1//EN" "http://www.w3.org/Graphics/SVG/1.1/DTD/svg11.dtd">
<!-- Creator: CorelDRAW 2017 -->
<svg xmlns="http://www.w3.org/2000/svg" xml:space="preserve" width="6.50348in" height="3.61301in" version="1.1" style="shape-rendering:geometricPrecision; text-rendering:geometricPrecision; image-rendering:optimizeQuality; fill-rule:evenodd; clip-rule:evenodd"
viewBox="0 0 6485.12 3602.82"
 xmlns:xlink="http://www.w3.org/1999/xlink">
 <defs>
  <style type="text/css">
   <![CDATA[
    .fil0 {fill:#FEFEFE}
   ]]>
  </style>
 </defs>
 <g id="Capa_x0020_1">
  <metadata id="CorelCorpID_0Corel-Layer"/>
  <path class="fil0" d="M166.97 95.4l366.11 27.83c-84.42,205.43 52.27,918.83 421.1,556.83 167.66,-164.56 12.45,-364.86 41.82,-590.37l268.3 -89.7c714.98,2566.33 -1007.59,2681.92 -1068.07,1487.08l378.47 16.41c154.4,563.61 620.04,57.15 403.11,-358.9 -280.52,110.85 -524.13,88.71 -695.11,-194.89 -137.79,-240.68 -175.11,-525.99 -115.72,-854.31z"/>
  <path class="fil0" d="M1476.67 374.77c9.58,-119.94 124.97,-184.29 286.44,-115.35 109.94,46.94 44.92,389.01 46.95,592.19 23.51,315.94 358.02,361.85 399.12,149.99 10.4,-53.64 -72.8,-292.67 -100.78,-476.52 -70.5,-463.59 329.27,-280.44 330.18,-277.34 156.19,529.68 116.15,1557.39 -747.66,1166.65 -177.44,-102.69 -255.9,-433.05 -214.26,-1039.62z"/>
  <path class="fil0" d="M2653.69 1397.31l271.13 -49.29 32.86 -690.14c28.85,79.93 257.85,546.79 312.21,517.61l271.12 -427.23c48.22,415.66 -38.31,625.27 0,583.33l246.48 0 82.17 -1051.64 -320.42 -98.59c-84.9,158.84 -169.8,317.68 -254.7,476.52 -96.81,-6.63 -158.22,-239 -254.69,-509.39l-295.77 -49.29c-124.42,444.49 -141.22,875.53 -90.38,1298.11z"/>
  <path class="fil0" d="M3963.8 1337.52l336.85 57.51c-71.29,-153.95 -63.07,-380.56 8.22,-665.49l90.37 32.86 246.48 599.76 377.93 -566.89c57.49,20.92 73.36,163.03 40.66,392.45 -19.62,137.66 -41.91,276.52 -65.32,412.71l361.5 147.88 41.08 -1519.94 -377.93 -41.08c-135.19,303.92 -246.96,532.25 -360.24,573.21l-214.88 -614.29 -394.36 -24.65c-115.37,405.32 -150.29,810.65 -90.38,1215.96z"/>
  <path class="fil0" d="M6485.12 326.69l-303.99 0c-13.31,91.17 11.81,360.96 -52.63,495.65 -98.47,205.78 -423.16,297.96 -300.65,-503.87l-290.52 -63.74c-167.26,1050.11 304.89,1254.85 618.62,1035.27 -105.22,1005.34 -1698.58,427.51 -2341.46,511.02 -1334.6,173.36 -1922.07,773.99 -1907.88,755.86 656.13,-838.55 1637.5,-1102.31 2923.44,-834.9 -1342.39,-425.87 -2372.31,-194.23 -2794.97,-41.5 -1755.94,634.5 -1325.27,3239.06 1457.62,1083.27 2097.67,-1624.98 2691.87,698.42 2992.42,-2437.07zm-4504.87 2793.67c-272.79,53.4 -398.6,-18.68 -516.98,-52.42 -240.68,-68.62 -210.94,222.86 58.69,323.28 595.84,221.95 1286.73,-493.82 1559.44,-670.75 148.46,-96.31 -672.75,316.03 -1101.15,399.88z"/>
  <path class="fil0" d="M868.81 2469.86c-295.41,45.61 -789.16,-168.35 -861.44,94.24 -46.9,170.4 136.35,322.78 373.83,297.1 228.96,-24.75 375.85,-229.87 487.62,-391.34z"/>
 </g>
</svg>
